<?xml version="1.0" encoding="windows-1252"?>
<!-- Generator: Adobe Illustrator 21.1.0, SVG Export Plug-In . SVG Version: 6.00 Build 0)  -->
<svg version="1.1" id="Layer_1" xmlns="http://www.w3.org/2000/svg" xmlns:xlink="http://www.w3.org/1999/xlink" x="0px" y="0px" viewBox="0 0 100.353 100.352" style="enable-background:new 0 0 100.353 100.352;" xml:space="preserve">
<g>
	<path d="M24.177,30.288l13.46-3.594c0.657-0.175,1.113-0.77,1.113-1.449v-7.486c0-0.466-0.216-0.905-0.586-1.189   c-0.369-0.284-0.851-0.379-1.3-0.26l-14.573,3.88c-0.657,0.175-1.114,0.77-1.114,1.45V49.91c-1.376-1.108-3.121-1.775-5.021-1.775   c-4.424,0-8.022,3.599-8.022,8.021c0,4.424,3.599,8.022,8.022,8.022c4.423,0,8.021-3.599,8.021-8.022   c0-0.007-0.001-0.013-0.001-0.019V30.288z M24.177,22.792l11.573-3.081v4.382l-11.573,3.089V22.792z M16.156,61.179   c-2.77,0-5.022-2.253-5.022-5.022c0-2.769,2.253-5.021,5.022-5.021c2.766,0,5.015,2.248,5.021,5.012v0.012c0,0.001,0,0.003,0,0.004   C21.174,58.929,18.923,61.179,16.156,61.179z"/>
	<path d="M87.392,25.569c0-0.469-0.22-0.911-0.593-1.194c-0.374-0.285-0.858-0.377-1.31-0.25L44.545,35.521   c-0.649,0.18-1.098,0.771-1.098,1.445v33.97c-1.636-1.498-3.808-2.421-6.196-2.421c-5.07,0-9.195,4.125-9.195,9.195   c0,5.069,4.125,9.194,9.195,9.194c5.059,0,9.176-4.108,9.193-9.163c0-0.01,0.003-0.02,0.003-0.03V46.724l37.944-10.063v22.786   c-1.636-1.498-3.808-2.421-6.196-2.421c-5.071,0-9.196,4.125-9.196,9.196s4.125,9.196,9.196,9.196c5.062,0,9.181-4.112,9.194-9.173   c0-0.007,0.002-0.014,0.002-0.021V25.569z M37.251,83.905c-3.416,0-6.195-2.778-6.195-6.194s2.779-6.195,6.195-6.195   s6.195,2.779,6.195,6.195S40.667,83.905,37.251,83.905z M46.447,43.621v-5.515l37.944-10.562v6.014L46.447,43.621z M78.195,72.418   c-3.417,0-6.196-2.779-6.196-6.196s2.779-6.196,6.196-6.196c3.416,0,6.195,2.779,6.195,6.196S81.611,72.418,78.195,72.418z"/>
</g>
</svg>