<svg id="Layer_1" data-name="Layer 1" xmlns="http://www.w3.org/2000/svg" viewBox="0 0 101 101"><title>Artboard 2 copy</title><path d="M61.37,78H11.6a1.5,1.5,0,0,1-1.5-1.5c0-14.84,11.84-26.92,26.39-26.92S62.87,61.66,62.87,76.5A1.5,1.5,0,0,1,61.37,78ZM13.14,75H59.82A23.65,23.65,0,0,0,36.48,52.58,23.65,23.65,0,0,0,13.14,75Z"/><path d="M36.5,45A16.5,16.5,0,1,1,53,28.5,16.52,16.52,0,0,1,36.5,45Zm0-30A13.5,13.5,0,1,0,50,28.5,13.52,13.52,0,0,0,36.5,15Z"/><path d="M36.48,62.07A29.17,29.17,0,0,1,21.43,57.9,1.5,1.5,0,1,1,23,55.33a26.24,26.24,0,0,0,27,0,1.5,1.5,0,1,1,1.55,2.57A29.17,29.17,0,0,1,36.48,62.07Z"/><path d="M49.49,26.38A11.84,11.84,0,0,1,40.81,23c-3,1.68-11.44,5.4-18.27.09a1.5,1.5,0,1,1,1.84-2.37c6.62,5.15,15.83-.85,15.93-.91a1.5,1.5,0,0,1,2.1.45c.08.12,2.15,3.17,7.08,3.17a1.5,1.5,0,0,1,0,3Z"/><path d="M92.5,63h-28a1.5,1.5,0,0,1,0-3H90.93A16.17,16.17,0,0,0,75,45.12a15.89,15.89,0,0,0-14.31,9A1.5,1.5,0,1,1,58,52.85,18.87,18.87,0,0,1,75,42.12,19.21,19.21,0,0,1,94,61.5,1.5,1.5,0,0,1,92.5,63Z"/><path d="M75,39A13,13,0,1,1,88,26,13,13,0,0,1,75,39Zm0-23A10,10,0,1,0,85,26,10,10,0,0,0,75,16Z"/><path d="M82.74,27.4A13,13,0,0,1,70,16.4a1.5,1.5,0,1,1,3-.44,9.92,9.92,0,0,0,13,7.91,1.5,1.5,0,1,1,1,2.84A12.88,12.88,0,0,1,82.74,27.4Z"/><path d="M89.5,52a1.5,1.5,0,0,1-1.2-2.4c3.18-4.23,1.45-8.31-.55-13C86.4,33.4,85,30.12,85,26.5a1.5,1.5,0,0,1,3,0c0,3,1.27,6,2.51,8.91,2.17,5.1,4.41,10.37.19,16A1.5,1.5,0,0,1,89.5,52Z"/><path d="M60.56,52a1.5,1.5,0,0,1-1.2-.6c-4.21-5.62-2-10.89.19-16,1.23-2.9,2.51-5.9,2.51-8.91a1.5,1.5,0,0,1,3,0c0,3.62-1.4,6.9-2.75,10.08-2,4.71-3.73,8.78-.55,13a1.5,1.5,0,0,1-1.2,2.4Z"/></svg>